<?xml version="1.0" standalone="no"?>
<!DOCTYPE svg PUBLIC "-//W3C//DTD SVG 1.1//EN" "http://www.w3.org/Graphics/SVG/1.1/DTD/svg11.dtd" >
<svg xmlns="http://www.w3.org/2000/svg" xmlns:xlink="http://www.w3.org/1999/xlink" version="1.1">
<metadata>
Created by FontForge 20161116 at Fri Dec 20 12:00:31 2002
 By Jimmy Warting
(C)2002 House Industries/Brand Design Co., Inc.
</metadata>
<defs>
<font id="ChaletComprime-CologneEighty" horiz-adv-x="200" >
  <font-face 
    font-family="ChaletComprime-CologneEighty"
    font-weight="400"
    font-stretch="normal"
    units-per-em="1000"
    panose-1="0 0 0 0 0 0 0 0 0 0"
    ascent="800"
    descent="-200"
    x-height="515"
    cap-height="652"
    bbox="-62 -195 863 874"
    underline-thickness="8"
    underline-position="-55"
    unicode-range="U+0020-FB02"
  />
<missing-glyph horiz-adv-x="500" 
 />
    <glyph glyph-name=".notdef" horiz-adv-x="500" 
 />
    <glyph glyph-name=".null" horiz-adv-x="0" 
 />
    <glyph glyph-name="nonmarkingreturn" horiz-adv-x="160" 
 />
    <glyph glyph-name="space" unicode=" " horiz-adv-x="160" 
 />
    <glyph glyph-name="numbersign" unicode="#" horiz-adv-x="435" 
d="M418 480h-72l19 130h-74l-19 -130h-70l19 130h-74l-18 -130h-73l-11 -75h72l-22 -155h-72l-12 -75h73l-19 -127h73l19 127h70l-18 -127h73l19 127h72l11 75h-72l22 155h72zM261 405l-22 -155h-70l21 155h71z" />
    <glyph glyph-name="dollar" unicode="$" horiz-adv-x="353" 
d="M313 197q0 48 -18.5 76.5t-52.5 55.5l-79 63q-20 16 -26.5 28.5t-6.5 33.5q0 29 11 45t34 16t34.5 -18.5t11.5 -50.5v-33h85v38q0 58 -26 93t-74 44v74h-57v-73q-51 -8 -77 -42.5t-26 -92.5q0 -48 18.5 -75.5t52.5 -54.5l79 -63q20 -16 26.5 -29.5t6.5 -34.5
q0 -31 -15.5 -46t-38.5 -15q-24 0 -38.5 17t-14.5 52v40h-85v-45q0 -60 29.5 -95t82.5 -43v-72h57v73q50 8 78.5 42.5t28.5 91.5z" />
    <glyph glyph-name="percent" unicode="%" horiz-adv-x="568" 
d="M242 442v88q0 34 -5.5 56.5t-24.5 40.5q-13 13 -33 20.5t-43 7.5t-43.5 -7.5t-33.5 -20.5q-18 -18 -24.5 -40.5t-6.5 -56.5v-88q0 -34 6.5 -56.5t24.5 -40.5q13 -13 33.5 -20.5t43.5 -7.5t43 7.5t33 20.5q19 18 24.5 40.5t5.5 56.5zM481 652h-71l-324 -652h71zM540 122
v88q0 34 -6 56.5t-25 40.5q-13 13 -33 20.5t-43 7.5t-43 -7.5t-33 -20.5q-19 -18 -25 -40.5t-6 -56.5v-88q0 -34 6.5 -56.5t24.5 -40.5q13 -13 33 -20.5t43 -7.5t43 7.5t33 20.5q19 18 25 40.5t6 56.5zM169 428q0 -25 -8.5 -35.5t-24.5 -10.5t-25 10.5t-9 35.5v116
q0 25 9 35.5t25 10.5t24.5 -10.5t8.5 -35.5v-116zM467 108q0 -25 -9 -35.5t-25 -10.5t-25 10.5t-9 35.5v116q0 25 9 35.5t25 10.5t25 -10.5t9 -35.5v-116z" />
    <glyph glyph-name="ampersand" unicode="&#x26;" horiz-adv-x="470" 
d="M449 0l-59 100q21 32 34.5 78t13.5 97v58h-85v-56q0 -23 -3.5 -48.5t-10.5 -40.5l-159 272q-14 24 -23.5 47t-9.5 46q0 32 14 50.5t40 18.5q27 0 40 -18.5t13 -52.5v-65h84v70q0 66 -33.5 104t-102.5 38q-37 0 -64 -11t-44 -29.5t-25.5 -44t-8.5 -54.5q0 -43 16 -78.5
t41 -77.5v-1q-24 -17 -40.5 -32t-27 -33t-15 -40.5t-4.5 -53.5v-68q0 -183 173 -183q42 0 71.5 10.5t57.5 32.5l21 -35h96zM292 104q-14 -14 -36 -23.5t-44 -9.5q-97 0 -97 108v64q0 36 8 58.5t30 39.5z" />
    <glyph glyph-name="quotesingle" unicode="'" horiz-adv-x="152" 
d="M116 652h-80l14 -239h52z" />
    <glyph glyph-name="parenleft" unicode="(" horiz-adv-x="251" 
d="M249 -116q-32 42 -56 95t-39.5 111t-23 118.5t-7.5 117.5t7.5 117.5t23 118.5t39.5 111t56 95h-75q-35 -36 -61 -88.5t-43 -112.5t-26 -122.5t-9 -118.5t9 -118.5t26 -122.5t43 -112.5t61 -88.5h75z" />
    <glyph glyph-name="parenright" unicode=")" horiz-adv-x="251" 
d="M215 326q0 56 -9 118.5t-26 122.5t-43.5 112.5t-60.5 88.5h-75q32 -42 56 -95t39.5 -111t23 -118.5t7.5 -117.5t-7.5 -117.5t-23 -118.5t-39.5 -111t-56 -95h75q34 36 60.5 88.5t43.5 112.5t26 122.5t9 118.5z" />
    <glyph glyph-name="asterisk" unicode="*" horiz-adv-x="335" 
d="M315 530v57l-101 -2l53 87l-51 28l-49 -88l-48 88l-50 -28l52 -87l-101 2v-58l101 2l-52 -86l50 -29l49 89l48 -89l51 29l-53 86z" />
    <glyph glyph-name="plus" unicode="+" horiz-adv-x="362" 
d="M334 235v82h-112v172h-82v-172h-112v-82h112v-172h82v172h112z" />
    <glyph glyph-name="comma" unicode="," horiz-adv-x="168" 
d="M134 -13v116h-100v-103h54v-13q0 -53 -47 -60v-45q17 1 34 8.5t30 20t21 31.5t8 45z" />
    <glyph glyph-name="hyphen" unicode="-" horiz-adv-x="214" 
d="M186 235v82h-158v-82h158z" />
    <glyph glyph-name="hyphen" unicode="&#xad;" horiz-adv-x="214" 
d="M186 235v82h-158v-82h158z" />
    <glyph glyph-name="period" unicode="." horiz-adv-x="168" 
d="M134 0v103h-100v-103h100z" />
    <glyph glyph-name="slash" unicode="/" horiz-adv-x="239" 
d="M242 692h-70l-172 -692h69z" />
    <glyph glyph-name="zero" unicode="0" horiz-adv-x="350" 
d="M315 133v386q0 67 -37.5 104t-102.5 37t-102.5 -37t-37.5 -104v-386q0 -67 37.5 -104t102.5 -37t102.5 37t37.5 104zM229 137q0 -35 -15 -51t-39 -16t-39 16t-15 51v378q0 35 15 51t39 16t39 -16t15 -51v-378z" />
    <glyph glyph-name="one" unicode="1" horiz-adv-x="210" 
d="M165 0v652h-73q-4 -38 -30 -54.5t-59 -18.5v-65h75v-514h87z" />
    <glyph glyph-name="two" unicode="2" horiz-adv-x="317" 
d="M295 0v78h-184v55q0 37 20 64t60 62q39 33 68.5 73t29.5 97v90q0 67 -35 104t-98 37t-97 -37t-34 -104v-73h85v69q0 67 46 67q47 0 47 -67v-82q0 -37 -20.5 -64t-60.5 -62q-39 -33 -67.5 -73t-28.5 -97v-137h269z" />
    <glyph glyph-name="three" unicode="3" horiz-adv-x="327" 
d="M299 133v100q0 38 -16 67.5t-43 40.5q27 11 42 41t15 68v69q0 67 -36 104t-101 37t-100.5 -37t-35.5 -104v-73h85v69q0 35 13.5 51t37.5 16t37.5 -16t13.5 -51v-76q0 -31 -13 -49t-40 -18h-47v-72h49q27 0 40 -18t13 -49v-96q0 -35 -14.5 -51t-38.5 -16t-37.5 16
t-13.5 51v69h-85v-73q0 -67 35.5 -104t100.5 -37t102 37t37 104z" />
    <glyph glyph-name="four" unicode="4" horiz-adv-x="348" 
d="M332 121v74h-51v457h-110l-162 -464v-67h186v-121h86v121h51zM207 565q0 -2 -3 -17.5t-6 -44.5t-3 -58v-250h-103z" />
    <glyph glyph-name="five" unicode="5" horiz-adv-x="336" 
d="M305 133v172q0 27 -5.5 51t-18 42t-33 28.5t-50.5 10.5q-23 0 -43.5 -9.5t-34.5 -26.5l10 172h164v79h-245l-15 -353h86v4q0 29 14.5 44.5t36.5 15.5q48 0 48 -60v-166q0 -35 -15 -51t-39 -16t-38 16t-14 51v69h-85v-73q0 -67 36 -104t101 -37t102.5 37t37.5 104z" />
    <glyph glyph-name="six" unicode="6" horiz-adv-x="346" 
d="M311 133v126q0 68 -29 104.5t-90 36.5q-22 0 -43 -11.5t-28 -28.5v155q0 35 13.5 51t37.5 16t37.5 -16t13.5 -51v-69h85v73q0 67 -35.5 104t-100.5 37t-101 -37t-36 -104v-386q0 -67 36.5 -104t101.5 -37t101.5 37t36.5 104zM225 137q0 -35 -14 -51t-38 -16t-38 16
t-14 51v118q0 35 14 51.5t38 16.5t38 -16.5t14 -51.5v-118z" />
    <glyph glyph-name="seven" unicode="7" horiz-adv-x="303" 
d="M290 575v77h-275v-79h197q-37 -48 -65 -113t-47 -139.5t-28 -156.5t-7 -164h88q-3 87 5 169.5t25.5 156.5t44.5 137t62 112z" />
    <glyph glyph-name="eight" unicode="8" horiz-adv-x="347" 
d="M318 133v97q0 38 -15.5 67.5t-42.5 40.5q23 14 38.5 40t15.5 58v83q0 67 -38 104t-103 37t-103 -37t-38 -104v-83q0 -32 15.5 -58t38.5 -40q-27 -11 -42.5 -40.5t-15.5 -67.5v-97q0 -69 39.5 -105t105.5 -36q67 0 106 36t39 105zM228 432q0 -35 -15.5 -51t-39.5 -16
t-39.5 16t-15.5 51v83q0 35 15.5 51t39.5 16t39.5 -16t15.5 -51v-83zM232 137q0 -35 -17.5 -51t-41.5 -16t-41.5 16t-17.5 51v97q0 35 17.5 51t41.5 16t41.5 -16t17.5 -51v-97z" />
    <glyph glyph-name="nine" unicode="9" horiz-adv-x="346" 
d="M311 133v386q0 67 -36.5 104t-101.5 37t-101.5 -37t-36.5 -104v-126q0 -68 29 -104.5t90 -36.5q22 0 43 11.5t28 28.5v-155q0 -35 -13.5 -51t-37.5 -16t-37.5 16t-13.5 51v47h-85v-51q0 -67 35.5 -104t100.5 -37t101 37t36 104zM225 397q0 -35 -14 -51.5t-38 -16.5
t-38 16.5t-14 51.5v118q0 35 14 51t38 16t38 -16t14 -51v-118z" />
    <glyph glyph-name="colon" unicode=":" horiz-adv-x="168" 
d="M134 394v103h-100v-103h100zM134 0v103h-100v-103h100z" />
    <glyph glyph-name="semicolon" unicode=";" horiz-adv-x="168" 
d="M134 394v103h-100v-103h100zM134 -13v116h-100v-103h54v-13q0 -53 -47 -60v-45q17 1 34 8.5t30 20t21 31.5t8 45z" />
    <glyph glyph-name="semicolon" unicode="&#x37e;" horiz-adv-x="168" 
d="M134 394v103h-100v-103h100zM134 -13v116h-100v-103h54v-13q0 -53 -47 -60v-45q17 1 34 8.5t30 20t21 31.5t8 45z" />
    <glyph glyph-name="less" unicode="&#x3c;" horiz-adv-x="349" 
d="M315 55v96l-194 124v1l194 124v96l-277 -176v-88z" />
    <glyph glyph-name="equal" unicode="=" horiz-adv-x="378" 
d="M342 334v82h-306v-82h306zM342 138v82h-306v-82h306z" />
    <glyph glyph-name="greater" unicode="&#x3e;" horiz-adv-x="349" 
d="M311 232v88l-277 176v-96l194 -124v-1l-194 -124v-96z" />
    <glyph glyph-name="question" unicode="?" horiz-adv-x="323" 
d="M295 544q0 66 -32 109.5t-104 43.5q-66 0 -100.5 -36.5t-34.5 -103.5v-74h85v69q0 35 13.5 51t36.5 16q26 0 38.5 -20.5t12.5 -54.5q0 -47 -8.5 -79.5t-38.5 -64.5q-35 -38 -47.5 -83t-12.5 -108v-42h81v34q0 40 7.5 77.5t40.5 71.5q36 37 49.5 84t13.5 110zM192 0v99
h-96v-99h96z" />
    <glyph glyph-name="at" unicode="@" horiz-adv-x="579" 
d="M539 219v174q0 51 -16 97.5t-47 81t-78 55t-108 20.5q-62 0 -108.5 -20.5t-78 -55t-47.5 -81t-16 -97.5v-188q0 -55 16 -101.5t47.5 -80.5t78 -53t108.5 -19h110v59h-110q-45 0 -79 14.5t-57 40t-35 61t-12 77.5v190q0 33 11.5 67t34.5 61.5t57.5 45t79.5 17.5
t79.5 -17.5t57 -45t34 -61.5t11.5 -67v-174q0 -31 -16.5 -51t-36.5 -20h-19v227q0 27 -6 51t-19 42t-34.5 28t-52.5 10q-32 0 -53.5 -10t-35 -27.5t-19 -41.5t-5.5 -52v-177q0 -55 29 -82.5t84 -27.5h129q24 0 46 9.5t39 26.5t27 41t10 54zM323 148h-35q-18 0 -27 13t-9 42
v180q0 29 9 42t27 13t26.5 -13t8.5 -42v-235z" />
    <glyph glyph-name="A" unicode="A" horiz-adv-x="312" 
d="M312 0l-99 652h-113l-100 -652h87l21 167h96l21 -167h87zM193 238h-74l24 196q2 17 4.5 39t4 41.5t2.5 33l1 13.5h2l1 -13l2.5 -32.5t4 -41.5t4.5 -40z" />
    <glyph glyph-name="B" unicode="B" horiz-adv-x="348" 
d="M322 142v95q0 38 -15.5 65.5t-42.5 38.5q23 14 36 38t13 56v75q0 64 -32.5 103t-106.5 39h-129v-652h138q74 0 106.5 38.5t32.5 103.5zM227 439q0 -31 -13 -49t-40 -18h-43v201h43q27 0 40 -18t13 -49v-67zM236 144q0 -31 -13 -49t-40 -18h-52v223h52q27 0 40 -18t13 -49
v-89z" />
    <glyph glyph-name="C" unicode="C" horiz-adv-x="331" 
d="M306 132v74h-86v-69q0 -67 -49 -67q-50 0 -50 67v378q0 67 50 67q49 0 49 -67v-69h86v74q0 67 -35 103.5t-100 36.5t-100.5 -36.5t-35.5 -103.5v-388q0 -67 35.5 -103.5t100.5 -36.5t100 36.5t35 103.5z" />
    <glyph glyph-name="D" unicode="D" horiz-adv-x="360" 
d="M325 142v368q0 64 -32.5 103t-106.5 39h-141v-652h141q74 0 106.5 38.5t32.5 103.5zM239 144q0 -31 -13 -49t-40 -18h-55v496h55q27 0 40 -18t13 -49v-362z" />
    <glyph glyph-name="E" unicode="E" horiz-adv-x="275" 
d="M259 0v77h-128v219h113v80h-113v197h128v79h-214v-652h214z" />
    <glyph glyph-name="F" unicode="F" horiz-adv-x="264" 
d="M259 573v79h-214v-652h86v283h113v80h-113v210h128z" />
    <glyph glyph-name="G" unicode="G" horiz-adv-x="339" 
d="M308 0v333h-137v-75h51v-121q0 -35 -13.5 -50.5t-37.5 -15.5t-37 15.5t-13 50.5v378q0 35 13.5 51t37.5 16q50 0 50 -67v-69h86v74q0 67 -35.5 103.5t-100.5 36.5t-101 -36.5t-36 -103.5v-388q0 -67 32.5 -103.5t94.5 -36.5q30 0 54 12.5t35 32.5l13 -37h44z" />
    <glyph glyph-name="H" unicode="H" horiz-adv-x="374" 
d="M329 0v652h-86v-273h-112v273h-86v-652h86v300h112v-300h86z" />
    <glyph glyph-name="I" unicode="I" horiz-adv-x="176" 
d="M131 0v652h-86v-652h86z" />
    <glyph glyph-name="J" unicode="J" horiz-adv-x="319" 
d="M283 132v520h-86v-515q0 -35 -13.5 -51t-37.5 -16q-50 0 -50 67v69h-86v-74q0 -67 35.5 -103.5t100.5 -36.5t101 36.5t36 103.5z" />
    <glyph glyph-name="K" unicode="K" horiz-adv-x="335" 
d="M336 0l-116 408l110 244h-87l-82 -183q-9 -20 -15.5 -42.5t-9.5 -35.5t-3 -15h-2v276h-86v-652h86v254l33 74l85 -328h87z" />
    <glyph glyph-name="L" unicode="L" horiz-adv-x="265" 
d="M259 0v77h-128v575h-86v-652h214z" />
    <glyph glyph-name="M" unicode="M" horiz-adv-x="514" 
d="M469 0v652h-132l-68 -411q-3 -18 -5 -40t-3.5 -41.5t-2 -32.5l-0.5 -13h-2l-0.5 13t-2 32.5t-3.5 41.5t-5 40l-68 411h-132v-652h82v425q0 24 -1 48.5t-2 45t-2 33.5l-1 13h2l91 -565h86l91 565h2l-1 -13t-2 -33.5t-2 -45.5t-1 -48v-425h82z" />
    <glyph glyph-name="N" unicode="N" horiz-adv-x="389" 
d="M344 0v652h-79v-350q0 -23 1.5 -47.5t3.5 -45t3.5 -34l1.5 -13.5h-2l-132 490h-96v-652h79v350q0 24 -1.5 48.5t-4 45t-4 33.5l-1.5 13h2l132 -490h97z" />
    <glyph glyph-name="O" unicode="O" horiz-adv-x="350" 
d="M315 132v388q0 67 -37.5 103.5t-102.5 36.5t-102.5 -36.5t-37.5 -103.5v-388q0 -67 37.5 -103.5t102.5 -36.5t102.5 36.5t37.5 103.5zM229 137q0 -35 -15 -51t-39 -16t-39 16t-15 51v378q0 35 15 51t39 16t39 -16t15 -51v-378z" />
    <glyph glyph-name="P" unicode="P" horiz-adv-x="341" 
d="M321 396v114q0 64 -32.5 103t-106.5 39h-137v-652h86v254h51q74 0 106.5 38.5t32.5 103.5zM235 400q0 -31 -13 -49t-40 -18h-51v240h51q27 0 40 -18t13 -49v-106z" />
    <glyph glyph-name="Q" unicode="Q" horiz-adv-x="357" 
d="M325 -85l-65 102q26 19 40.5 46.5t14.5 68.5v388q0 67 -37.5 103.5t-102.5 36.5t-102.5 -36.5t-37.5 -103.5v-388q0 -67 37.5 -103.5t102.5 -36.5h12l50 -77h88zM229 137q0 -35 -15 -51t-39 -16t-39 16t-15 51v378q0 35 15 51t39 16t39 -16t15 -51v-378z" />
    <glyph glyph-name="R" unicode="R" horiz-adv-x="353" 
d="M318 0v220q0 38 -13.5 67.5t-40.5 40.5q23 12 38.5 38t15.5 60v80q0 32 -8 59t-24.5 46.5t-43 30t-63.5 10.5h-134v-652h86v287h48q27 0 40 -18t13 -49v-220h86zM232 426q0 -31 -13 -49t-40 -18h-48v214h48q27 0 40 -18t13 -49v-80z" />
    <glyph glyph-name="S" unicode="S" horiz-adv-x="327" 
d="M305 145q0 48 -12.5 83t-46.5 72l-97 105q-24 26 -32 48.5t-8 53.5q0 34 13.5 54.5t40.5 20.5q24 0 38.5 -16t14.5 -51v-69h85v74q0 67 -36 103.5t-102 36.5q-36 0 -62.5 -11.5t-43.5 -32t-25 -48.5t-8 -61q0 -24 2.5 -44.5t9.5 -39t18.5 -36t28.5 -35.5l97 -105
q24 -26 32 -48.5t8 -53.5q0 -75 -60 -75q-23 0 -39 16t-16 51v69h-85v-74q0 -69 38.5 -104.5t101.5 -35.5q73 0 109 43.5t36 109.5z" />
    <glyph glyph-name="T" unicode="T" horiz-adv-x="276" 
d="M275 573v79h-274v-79h94v-573h86v573h94z" />
    <glyph glyph-name="U" unicode="U" horiz-adv-x="354" 
d="M315 132v520h-86v-515q0 -35 -14 -51t-38 -16t-38 16t-14 51v515h-86v-520q0 -67 36.5 -103.5t101.5 -36.5t101.5 36.5t36.5 103.5z" />
    <glyph glyph-name="V" unicode="V" horiz-adv-x="318" 
d="M315 652h-85l-58 -408q-3 -17 -5 -39t-3.5 -41.5t-2.5 -33l-1 -13.5h-2l-1 13l-2.5 32.5t-3.5 41.5t-5 40l-58 408h-85l106 -652h99z" />
    <glyph glyph-name="W" unicode="W" horiz-adv-x="500" 
d="M497 652h-87l-41 -409q-2 -17 -3.5 -39t-3 -41.5t-2.5 -33l-1 -13.5h-2l-1 13l-2.5 32.5t-4 41.5t-4.5 40l-52 409h-86l-52 -409q-2 -17 -4.5 -39t-4 -41.5t-2.5 -33l-1 -13.5h-2l-1 13l-2.5 32.5t-3 41.5t-3.5 40l-41 409h-87l83 -652h106l44 359q2 18 4.5 40t4 41.5
l2.5 32.5l1 13h2l1 -13l2.5 -32.5t4 -41.5t4.5 -40l45 -359h106z" />
    <glyph glyph-name="X" unicode="X" horiz-adv-x="308" 
d="M305 0l-102 329l101 323h-88l-44 -163q-9 -34 -12.5 -59l-3.5 -25h-2l-3 25.5t-12 58.5l-45 163h-89l100 -325l-102 -327h88l47 163q10 33 13 58l3 25h2l3 -24.5t12 -58.5l43 -163h91z" />
    <glyph glyph-name="Y" unicode="Y" horiz-adv-x="308" 
d="M310 652h-90l-49 -214q-5 -22 -8.5 -44.5t-5.5 -35t-2 -14.5h-2q0 2 -1.5 14.5t-5 35t-8.5 44.5l-50 214h-90l112 -403v-249h86v249z" />
    <glyph glyph-name="Z" unicode="Z" horiz-adv-x="289" 
d="M278 0v77h-185l176 497v78h-256v-79h167l-175 -499v-74h273z" />
    <glyph glyph-name="bracketleft" unicode="[" horiz-adv-x="262" 
d="M250 -116v63h-97v757h97v64h-182v-884h182z" />
    <glyph glyph-name="backslash" unicode="\" horiz-adv-x="239" 
d="M239 0l-172 692h-70l173 -692h69z" />
    <glyph glyph-name="bracketright" unicode="]" horiz-adv-x="262" 
d="M194 -116v884h-182v-64h97v-757h-97v-63h182z" />
    <glyph glyph-name="asciicircum" unicode="^" horiz-adv-x="361" 
d="M336 375l-112 277h-86l-113 -277h89l65 187h3l65 -187h89z" />
    <glyph glyph-name="underscore" unicode="_" horiz-adv-x="350" 
d="M350 -151v82h-350v-82h350z" />
    <glyph glyph-name="grave" unicode="`" horiz-adv-x="417" 
d="M290 603l-87 132h-102l123 -132h66z" />
    <glyph glyph-name="a" unicode="a" horiz-adv-x="342" 
d="M306 0v515h-82v-34q-8 20 -30 31t-45 11q-61 0 -90 -36t-29 -104v-251q0 -68 29 -104t90 -36q23 0 45 11t30 31v-34h82zM221 137q0 -35 -14.5 -51.5t-38.5 -16.5t-38.5 16.5t-14.5 51.5v241q0 35 14.5 51.5t38.5 16.5t38.5 -16.5t14.5 -51.5v-241z" />
    <glyph glyph-name="b" unicode="b" horiz-adv-x="342" 
d="M312 132v251q0 68 -29 104t-90 36q-22 0 -43.5 -11.5t-28.5 -28.5v209h-85v-692h82v34q8 -20 30 -31t45 -11q61 0 90 36t29 104zM227 137q0 -35 -14.5 -51.5t-38.5 -16.5t-38.5 16.5t-14.5 51.5v241q0 35 14.5 51.5t38.5 16.5t38.5 -16.5t14.5 -51.5v-241z" />
    <glyph glyph-name="c" unicode="c" horiz-adv-x="307" 
d="M289 132v34h-85v-29q0 -68 -46 -68t-46 68v241q0 32 11 50t35 18q46 0 46 -68v-30h85v35q0 67 -33.5 103.5t-97.5 36.5t-97.5 -37t-33.5 -104v-250q0 -67 34 -103.5t97 -36.5t97 36.5t34 103.5z" />
    <glyph glyph-name="d" unicode="d" horiz-adv-x="342" 
d="M306 0v692h-85v-209q-7 17 -28.5 28.5t-43.5 11.5q-61 0 -90 -36t-29 -104v-251q0 -68 29 -104t90 -36q23 0 45 11t30 31v-34h82zM221 137q0 -35 -14.5 -51.5t-38.5 -16.5t-38.5 16.5t-14.5 51.5v241q0 35 14.5 51.5t38.5 16.5t38.5 -16.5t14.5 -51.5v-241z" />
    <glyph glyph-name="e" unicode="e" horiz-adv-x="328" 
d="M302 132v34h-85v-29q0 -35 -14 -51.5t-38 -16.5t-38.5 16.5t-14.5 51.5v97h190v149q0 67 -36.5 103.5t-101.5 36.5t-101 -36.5t-36 -103.5v-251q0 -67 36.5 -103.5t101.5 -36.5t101 36.5t36 103.5zM216 302h-104v76q0 35 14 51.5t38 16.5t38 -16.5t14 -51.5v-76z" />
    <glyph glyph-name="f" unicode="f" horiz-adv-x="308" 
d="M300 467v93q0 66 -34 103t-98 37t-98 -37t-34 -103v-560h85v308h174v76h-174v171q0 68 47 68t47 -68v-88h85z" />
    <glyph glyph-name="g" unicode="g" horiz-adv-x="342" 
d="M306 -55v570h-82v-34q-8 20 -30 31t-45 11q-61 0 -90 -36t-29 -104v-251q0 -68 29 -104t90 -36q22 0 43.5 11.5t28.5 28.5v-82q0 -35 -14 -51.5t-38 -16.5t-38 16.5t-14 51.5v9h-85v-14q0 -67 36 -103.5t101 -36.5t101 36.5t36 103.5zM221 137q0 -35 -14.5 -51.5
t-38.5 -16.5t-38.5 16.5t-14.5 51.5v241q0 35 14.5 51.5t38.5 16.5t38.5 -16.5t14.5 -51.5v-241z" />
    <glyph glyph-name="h" unicode="h" horiz-adv-x="337" 
d="M304 0v383q0 68 -26.5 104t-87.5 36q-21 0 -41.5 -11.5t-27.5 -28.5v209h-85v-692h85v378q0 35 13 51.5t36 16.5q49 0 49 -68v-378h85z" />
    <glyph glyph-name="i" unicode="i" horiz-adv-x="157" 
d="M121 591v101h-85v-101h85zM121 0v515h-85v-515h85z" />
    <glyph glyph-name="j" unicode="j" horiz-adv-x="157" 
d="M121 591v101h-85v-101h85zM121 -51v566h-85v-561q0 -35 -15.5 -50.5t-56.5 -12.5v-83q83 -7 120 31t37 110z" />
    <glyph glyph-name="k" unicode="k" horiz-adv-x="334" 
d="M333 0l-120 327l117 188h-91l-91 -145q-6 -10 -12 -23.5t-9.5 -22t-3.5 -9.5h-2v377h-85v-692h85v206l31 49l88 -255h93z" />
    <glyph glyph-name="l" unicode="l" horiz-adv-x="157" 
d="M121 0v692h-85v-692h85z" />
    <glyph glyph-name="m" unicode="m" horiz-adv-x="512" 
d="M479 0v383q0 68 -25 104t-86 36q-64 0 -89 -49q-12 25 -33 37t-57 12q-22 0 -43 -11.5t-28 -28.5v32h-82v-515h85v378q0 68 47 68t47 -68v-378h85v378q0 68 47 68t47 -68v-378h85z" />
    <glyph glyph-name="n" unicode="n" horiz-adv-x="337" 
d="M304 0v383q0 68 -26.5 104t-87.5 36q-22 0 -43.5 -11.5t-28.5 -28.5v32h-82v-515h85v378q0 35 13 51.5t36 16.5q49 0 49 -68v-378h85z" />
    <glyph glyph-name="o" unicode="o" horiz-adv-x="330" 
d="M303 132v251q0 67 -36.5 103.5t-101.5 36.5t-101.5 -36.5t-36.5 -103.5v-251q0 -67 36.5 -103.5t101.5 -36.5t101.5 36.5t36.5 103.5zM218 137q0 -35 -14.5 -51.5t-38.5 -16.5t-38.5 16.5t-14.5 51.5v241q0 35 14.5 51.5t38.5 16.5t38.5 -16.5t14.5 -51.5v-241z" />
    <glyph glyph-name="p" unicode="p" horiz-adv-x="342" 
d="M312 132v251q0 68 -29 104t-90 36q-23 0 -45 -11t-30 -31v34h-82v-705h85v222q7 -17 28.5 -28.5t43.5 -11.5q61 0 90 36t29 104zM227 137q0 -35 -14.5 -51.5t-38.5 -16.5t-38.5 16.5t-14.5 51.5v241q0 35 14.5 51.5t38.5 16.5t38.5 -16.5t14.5 -51.5v-241z" />
    <glyph glyph-name="q" unicode="q" horiz-adv-x="342" 
d="M306 -190v705h-82v-34q-8 20 -30 31t-45 11q-61 0 -90 -36t-29 -104v-251q0 -68 29 -104t90 -36q22 0 43.5 11.5t28.5 28.5v-222h85zM221 137q0 -35 -14.5 -51.5t-38.5 -16.5t-38.5 16.5t-14.5 51.5v241q0 35 14.5 51.5t38.5 16.5t38.5 -16.5t14.5 -51.5v-241z" />
    <glyph glyph-name="r" unicode="r" horiz-adv-x="312" 
d="M300 304v79q0 68 -25 104t-86 36q-22 0 -43 -11.5t-28 -28.5v32h-82v-515h85v378q0 68 47 68t47 -68v-74h85z" />
    <glyph glyph-name="s" unicode="s" horiz-adv-x="305" 
d="M290 129q0 48 -18.5 76.5t-52.5 55.5l-79 63q-20 16 -26.5 28.5t-6.5 33.5q0 29 11 45t34 16t34.5 -18.5t11.5 -50.5v-30h85v35q0 67 -34 103.5t-97 36.5t-96 -36t-33 -101q0 -48 18.5 -75.5t52.5 -54.5l79 -63q20 -16 26.5 -29.5t6.5 -34.5q0 -31 -15.5 -46t-38.5 -15
q-24 0 -38.5 17t-14.5 52v29h-85v-34q0 -67 36.5 -103.5t101.5 -36.5q63 0 100.5 36t37.5 101z" />
    <glyph glyph-name="t" unicode="t" horiz-adv-x="312" 
d="M297 132v86h-85v-81q0 -68 -47 -68t-47 68v301h159v77h-159v122h-85v-505q0 -66 33.5 -103t98.5 -37t98.5 37t33.5 103z" />
    <glyph glyph-name="u" unicode="u" horiz-adv-x="337" 
d="M301 0v515h-85v-378q0 -35 -13 -51.5t-36 -16.5q-49 0 -49 68v378h-85v-383q0 -68 26.5 -104t87.5 -36q22 0 43.5 11.5t28.5 28.5v-32h82z" />
    <glyph glyph-name="v" unicode="v" horiz-adv-x="294" 
d="M291 515h-88l-42 -283q-3 -17 -5 -39t-4 -41.5t-3 -33l-1 -13.5h-2l-1 13t-3 32.5t-4 41.5t-5 40l-42 283h-88l95 -515h97z" />
    <glyph glyph-name="w" unicode="w" horiz-adv-x="482" 
d="M479 515h-86l-39 -286q-2 -17 -4.5 -39t-4.5 -41.5t-3 -33l-1 -13.5h-2l-1 13t-3 32.5t-4.5 41.5t-4.5 40l-38 286h-94l-38 -286q-2 -17 -4.5 -39t-4.5 -41.5t-3 -33l-1 -13.5h-2l-1 13t-3 32.5t-4.5 41.5t-4.5 40l-39 286h-86l90 -515h94l39 275q3 18 5 40t4 41.5
t3 32.5l1 13h2l1 -13.5t3 -33t4 -41.5t5 -39l39 -275h95z" />
    <glyph glyph-name="x" unicode="x" horiz-adv-x="298" 
d="M296 0l-102 265l99 250h-86l-44 -121q-4 -11 -7 -24.5t-4.5 -22t-1.5 -9.5h-1q0 1 -1.5 9.5t-5 22.5t-7.5 24l-46 121h-84l99 -249l-102 -266h88l47 135q3 10 6.5 24t5.5 22.5t2 9.5h1q0 -1 1.5 -9.5t5 -22t6.5 -24.5l43 -135h88z" />
    <glyph glyph-name="y" unicode="y" horiz-adv-x="337" 
d="M301 -55v570h-85v-378q0 -35 -13 -51.5t-36 -16.5q-49 0 -49 68v378h-85v-383q0 -68 26.5 -104t87.5 -36q22 0 42 11.5t27 28.5v-82q0 -68 -50 -68t-50 68v9h-85v-14q0 -67 35 -103.5t100 -36.5t100 36.5t35 103.5z" />
    <glyph glyph-name="z" unicode="z" horiz-adv-x="247" 
d="M243 0v77h-152l143 361v77h-222v-77h135l-143 -367v-71h239z" />
    <glyph glyph-name="braceleft" unicode="{" horiz-adv-x="274" 
d="M262 -116v71q-42 -2 -59.5 17.5t-17.5 57.5v173q0 51 -17.5 80t-52.5 42q35 14 52.5 43t17.5 79v175q0 37 17.5 57t59.5 18v71q-33 3 -62 -3.5t-50 -23.5t-33.5 -46.5t-12.5 -72.5v-178q0 -26 -7 -42t-19 -25.5t-27.5 -13t-32.5 -3.5v-70q17 0 32.5 -3.5t27.5 -13t19 -26
t7 -41.5v-176q0 -44 12.5 -73t33.5 -46t50 -23.5t62 -3.5z" />
    <glyph glyph-name="bar" unicode="|" horiz-adv-x="184" 
d="M124 0v692h-64v-692h64z" />
    <glyph glyph-name="braceright" unicode="}" horiz-adv-x="274" 
d="M256 290v70q-17 0 -32.5 3.5t-27.5 13t-19 25.5t-7 42v178q0 43 -12.5 72.5t-33.5 46.5t-50 23.5t-62 3.5v-71q42 2 59.5 -18t17.5 -57v-175q0 -50 17.5 -79t52.5 -43q-35 -13 -52.5 -42t-17.5 -80v-173q0 -38 -17.5 -57.5t-59.5 -17.5v-71q33 -3 62 3.5t50 23.5t33.5 46
t12.5 73v176q0 25 7 41.5t19 26t27.5 13t32.5 3.5z" />
    <glyph glyph-name="asciitilde" unicode="~" horiz-adv-x="355" 
d="M323 393h-57q0 -23 -11 -38.5t-26 -15.5q-11 0 -21 7.5t-21.5 17t-24.5 17t-29 7.5q-49 0 -76.5 -37t-24.5 -92h56q0 21 11.5 37t26.5 16q11 0 21.5 -7.5t21.5 -16.5t24 -16.5t30 -7.5q48 0 75 36.5t25 92.5z" />
    <glyph glyph-name="Euro" unicode="&#x20ac;" horiz-adv-x="365" 
d="M337 133v33h-85v-29q0 -35 -13.5 -51t-37.5 -16t-38 16t-14 51v97h145v57h-145v73h145v57h-145v94q0 35 14 51t38 16t37.5 -16t13.5 -51v-29h85v33q0 67 -35.5 104t-100.5 37t-101 -37t-36 -104v-98h-54v-57h54v-73h-54v-57h54v-101q0 -67 36 -104t101 -37t100.5 37
t35.5 104z" />
    <glyph glyph-name="quotesinglbase" unicode="&#x201a;" horiz-adv-x="168" 
d="M134 -13v116h-100v-103h54v-13q0 -53 -47 -60v-45q17 1 34 8.5t30 20t21 31.5t8 45z" />
    <glyph glyph-name="florin" unicode="&#x192;" horiz-adv-x="264" 
d="M244 364v73h-73v61q0 42 18 59t55 14v83q-42 3 -71.5 -7t-48.5 -30.5t-28 -50t-9 -63.5v-66h-53v-73h53v-211q0 -43 -18 -59q-18 -17 -55 -14v-83q42 -3 71.5 7t48.5 30.5t28 49.5t9 64v216h73z" />
    <glyph glyph-name="quotedblbase" unicode="&#x201e;" horiz-adv-x="324" 
d="M289 -13v116h-100v-103h54v-13q0 -53 -47 -60v-45q17 1 34 8.5t30 20t21 31.5t8 45zM134 -13v116h-100v-103h54v-13q0 -53 -47 -60v-45q17 1 34 8.5t30 20t21 31.5t8 45z" />
    <glyph glyph-name="ellipsis" unicode="&#x2026;" horiz-adv-x="544" 
d="M510 0v103h-100v-103h100zM322 0v103h-100v-103h100zM134 0v103h-100v-103h100z" />
    <glyph glyph-name="dagger" unicode="&#x2020;" horiz-adv-x="312" 
d="M282 476v66h-92v110h-68v-110h-92v-66h92v-256h68v256h92z" />
    <glyph glyph-name="daggerdbl" unicode="&#x2021;" horiz-adv-x="312" 
d="M282 328v66h-92v82h92v66h-92v110h-68v-110h-92v-66h92v-82h-92v-66h92v-108h68v108h92z" />
    <glyph glyph-name="circumflex" unicode="&#x2c6;" horiz-adv-x="417" 
d="M309 603l-72 127h-58l-71 -127h64l36 75l36 -75h65z" />
    <glyph glyph-name="perthousand" unicode="&#x2030;" horiz-adv-x="824" 
d="M242 442v88q0 34 -5.5 56.5t-24.5 40.5q-13 13 -33 20.5t-43 7.5t-43.5 -7.5t-33.5 -20.5q-18 -18 -24.5 -40.5t-6.5 -56.5v-88q0 -34 6.5 -56.5t24.5 -40.5q13 -13 33.5 -20.5t43.5 -7.5t43 7.5t33 20.5q19 18 24.5 40.5t5.5 56.5zM477 652h-71l-324 -652h71zM796 122
v88q0 34 -5.5 56.5t-24.5 40.5q-13 13 -33.5 20.5t-43.5 7.5t-43 -7.5t-33 -20.5q-18 -18 -24.5 -40.5t-6.5 -56.5v-88q0 -34 6.5 -56.5t24.5 -40.5q13 -13 33 -20.5t43 -7.5t43.5 7.5t33.5 20.5q19 18 24.5 40.5t5.5 56.5zM532 122v88q0 34 -6 56.5t-25 40.5
q-13 13 -33 20.5t-43 7.5t-43 -7.5t-33 -20.5q-18 -18 -24.5 -40.5t-6.5 -56.5v-88q0 -34 6.5 -56.5t24.5 -40.5q13 -13 33 -20.5t43 -7.5t43 7.5t33 20.5q19 18 25 40.5t6 56.5zM169 428q0 -25 -8.5 -35.5t-24.5 -10.5t-25 10.5t-9 35.5v116q0 25 9 35.5t25 10.5
t24.5 -10.5t8.5 -35.5v-116zM723 108q0 -25 -9 -35.5t-25 -10.5t-24.5 10.5t-8.5 35.5v116q0 25 8.5 35.5t24.5 10.5t25 -10.5t9 -35.5v-116zM459 108q0 -25 -9 -35.5t-25 -10.5t-25 10.5t-9 35.5v116q0 25 9 35.5t25 10.5t25 -10.5t9 -35.5v-116z" />
    <glyph glyph-name="Scaron" unicode="&#x160;" horiz-adv-x="327" 
d="M296 833h-69l-49 -81l-49 81h-68l85 -127h64zM305 145q0 48 -12.5 83t-46.5 72l-97 105q-24 26 -32 48.5t-8 53.5q0 34 13.5 54.5t40.5 20.5q24 0 38.5 -16t14.5 -51v-69h85v74q0 67 -36 103.5t-102 36.5q-36 0 -62.5 -11.5t-43.5 -32t-25 -48.5t-8 -61q0 -24 2.5 -44.5
t9.5 -39t18.5 -36t28.5 -35.5l97 -105q24 -26 32 -48.5t8 -53.5q0 -75 -60 -75q-23 0 -39 16t-16 51v69h-85v-74q0 -69 38.5 -104.5t101.5 -35.5q73 0 109 43.5t36 109.5z" />
    <glyph glyph-name="guilsinglleft" unicode="&#x2039;" horiz-adv-x="194" 
d="M172 130v88l-100 82l100 80v89l-158 -136v-67z" />
    <glyph glyph-name="OE" unicode="&#x152;" horiz-adv-x="459" 
d="M443 0v77h-127v219h112v80h-112v197h127v79h-268q-74 0 -106.5 -39t-32.5 -103v-368q0 -65 32.5 -103.5t106.5 -38.5h268zM230 77h-55q-27 0 -40 18t-13 49v362q0 31 13 49t40 18h55v-496z" />
    <glyph glyph-name="Zcaron" horiz-adv-x="295" 
d="M263 833h-69l-49 -81l-49 81h-68l85 -127h64zM278 0v79h-185l176 495v78h-256v-79h167l-175 -499v-74h273z" />
    <glyph glyph-name="Zcaron" unicode="&#x17d;" horiz-adv-x="295" 
d="M263 833h-69l-49 -81l-49 81h-68l85 -127h64zM278 0v79h-185l176 495v78h-256v-79h167l-175 -499v-74h273z" />
    <glyph glyph-name="quoteleft" unicode="&#x2018;" horiz-adv-x="179" 
d="M142 475v103h-54v13q0 53 47 60v45q-17 -2 -34 -9t-30 -19.5t-21 -32t-8 -44.5v-116h100z" />
    <glyph glyph-name="quoteright" unicode="&#x2019;" horiz-adv-x="179" 
d="M138 576v116h-100v-103h54v-13q0 -53 -47 -60v-45q17 1 34 8.5t30 20t21 31.5t8 45z" />
    <glyph glyph-name="quotedblleft" unicode="&#x201c;" horiz-adv-x="325" 
d="M288 475v103h-54v13q0 53 47 60v45q-17 -2 -34 -9t-30 -19.5t-21 -32t-8 -44.5v-116h100zM142 475v103h-54v13q0 53 47 60v45q-17 -2 -34 -9t-30 -19.5t-21 -32t-8 -44.5v-116h100z" />
    <glyph glyph-name="quotedblright" unicode="&#x201d;" horiz-adv-x="325" 
d="M284 576v116h-100v-103h54v-13q0 -53 -47 -60v-45q17 1 34 8.5t30 20t21 31.5t8 45zM138 576v116h-100v-103h54v-13q0 -53 -47 -60v-45q17 1 34 8.5t30 20t21 31.5t8 45z" />
    <glyph glyph-name="bullet" unicode="&#x2022;" horiz-adv-x="253" 
d="M203 334q0 32 -22 54t-54 22t-54.5 -22t-22.5 -54t22.5 -54.5t54.5 -22.5t54 22.5t22 54.5z" />
    <glyph glyph-name="endash" unicode="&#x2013;" horiz-adv-x="373" 
d="M345 235v82h-317v-82h317z" />
    <glyph glyph-name="emdash" unicode="&#x2014;" horiz-adv-x="478" 
d="M450 235v82h-422v-82h422z" />
    <glyph glyph-name="tilde" unicode="&#x2dc;" horiz-adv-x="375" 
d="M325 713h-46q0 -18 -8.5 -30.5t-20.5 -12.5q-9 0 -17 6t-17 13.5t-19.5 13.5t-23.5 6q-38 0 -60 -29t-20 -74h46q0 17 8.5 29.5t20.5 12.5q9 0 17 -6t17 -13t19.5 -13t23.5 -6q39 0 60.5 29.5t19.5 73.5z" />
    <glyph glyph-name="trademark" unicode="&#x2122;" horiz-adv-x="408" 
d="M375 376v276h-68l-28 -173q-1 -5 -1.5 -14.5t-1.5 -16.5h-2q-1 7 -1.5 16.5t-1.5 14.5l-30 173h-67v-276h44v179q0 8 -0.5 16l-0.5 8h2l34 -203h43l35 203h2l-0.5 -8t-0.5 -16v-179h43zM154 610v42h-133v-42h41v-234h48v234h44z" />
    <glyph glyph-name="scaron" unicode="&#x161;" horiz-adv-x="305" 
d="M272 694h-69l-49 -81l-49 81h-68l85 -127h64zM290 129q0 48 -18.5 76.5t-52.5 55.5l-79 63q-20 16 -26.5 28.5t-6.5 33.5q0 29 11 45t34 16t34.5 -18.5t11.5 -50.5v-30h85v35q0 67 -34 103.5t-97 36.5t-96 -36t-33 -101q0 -48 18.5 -75.5t52.5 -54.5l79 -63
q20 -16 26.5 -29.5t6.5 -34.5q0 -31 -15.5 -46t-38.5 -15q-24 0 -38.5 17t-14.5 52v29h-85v-34q0 -67 36.5 -103.5t101.5 -36.5q63 0 100.5 36t37.5 101z" />
    <glyph glyph-name="guilsinglright" unicode="&#x203a;" horiz-adv-x="195" 
d="M181 266v67l-159 136v-89l100 -80l-100 -82v-88z" />
    <glyph glyph-name="oe" unicode="&#x153;" horiz-adv-x="519" 
d="M493 132v34h-85v-29q0 -35 -14 -51.5t-38 -16.5t-38.5 16.5t-14.5 51.5v97h190v149q0 67 -36.5 103.5t-101.5 36.5q-29 0 -54.5 -10.5t-40.5 -30.5q-16 20 -41 30.5t-54 10.5q-65 0 -101.5 -36.5t-36.5 -103.5v-251q0 -67 37 -103.5t102 -36.5q29 0 54 10.5t41 30.5
q15 -20 40.5 -30.5t54.5 -10.5q65 0 101 36.5t36 103.5zM407 302h-104v76q0 35 14 51.5t38 16.5t38 -16.5t14 -51.5v-76zM218 137q0 -35 -14.5 -51.5t-38.5 -16.5t-38.5 16.5t-14.5 51.5v241q0 35 14.5 51.5t38.5 16.5t38.5 -16.5t14.5 -51.5v-241z" />
    <glyph glyph-name="zcaron" horiz-adv-x="247" 
d="M243 0v77h-152l143 361v77h-222v-77h135l-143 -367v-71h239z" />
    <glyph glyph-name="zcaron" unicode="&#x17e;" horiz-adv-x="247" 
d="M243 0v77h-152l143 361v77h-222v-77h135l-143 -367v-71h239z" />
    <glyph glyph-name="Ydieresis" unicode="&#x178;" horiz-adv-x="312" 
d="M259 714v90h-81v-90h81zM128 714v90h-81v-90h81zM314 652h-90l-49 -214q-5 -22 -8.5 -44.5t-5.5 -35t-2 -14.5h-2q0 2 -1.5 14.5t-5 35t-8.5 44.5l-50 214h-90l112 -403v-249h86v249z" />
    <glyph glyph-name="nonbreakingspace" unicode="&#xa0;" horiz-adv-x="160" 
 />
    <glyph glyph-name="exclamdown" unicode="&#xa1;" horiz-adv-x="195" 
d="M145 593v99h-95v-99h95zM140 0v264l-15 251h-55l-15 -251v-264h85z" />
    <glyph glyph-name="cent" unicode="&#xa2;" horiz-adv-x="350" 
d="M312 200v45h-85v-40q0 -68 -50 -68t-50 68v241q0 68 50 68t50 -68v-33h85v38q0 59 -27.5 94.5t-78.5 43.5v73h-57v-73q-52 -8 -79.5 -43t-27.5 -95v-251q0 -60 27.5 -95t79.5 -43v-72h57v72q51 8 78.5 43.5t27.5 94.5z" />
    <glyph glyph-name="sterling" unicode="&#xa3;" horiz-adv-x="355" 
d="M331 0v79h-204q32 26 48.5 69t16.5 96q0 15 -1.5 28.5t-3.5 26.5h114v57h-129q-7 21 -14.5 39t-13.5 36t-10 37.5t-4 43.5q0 30 13 50t42 20q24 0 38 -16t14 -51v-69h85v73q0 67 -36 104t-101 37q-37 0 -63.5 -11t-43.5 -31t-25 -48t-8 -62q0 -43 12.5 -78t26.5 -74h-45
v-57h62q8 -34 8 -68q0 -106 -73 -158v-73h295z" />
    <glyph glyph-name="currency" unicode="&#xa4;" horiz-adv-x="365" 
d="M337 133v33h-85v-29q0 -35 -13.5 -51t-37.5 -16t-38 16t-14 51v97h145v57h-145v73h145v57h-145v94q0 35 14 51t38 16t37.5 -16t13.5 -51v-29h85v33q0 67 -35.5 104t-100.5 37t-101 -37t-36 -104v-98h-54v-57h54v-73h-54v-57h54v-101q0 -67 36 -104t101 -37t100.5 37
t35.5 104z" />
    <glyph glyph-name="yen" unicode="&#xa5;" horiz-adv-x="344" 
d="M328 652h-90l-66 -283l-66 283h-90l62 -221h-51v-57h66l21 -76h-87v-57h101v-241h86v241h103v57h-89l21 76h68v57h-52z" />
    <glyph glyph-name="section" unicode="&#xa7;" horiz-adv-x="336" 
d="M302 309q0 27 -8 46.5t-21.5 34.5t-31 27t-37.5 24q-13 8 -27.5 15.5t-27 17.5t-20.5 22.5t-8 30.5q0 25 8 43t31 18q25 0 33 -19.5t8 -48.5v-27h80v35q0 63 -30 98t-91 35q-62 0 -89.5 -37t-27.5 -100q0 -29 6.5 -48.5t19.5 -36.5q-22 -16 -35 -37.5t-13 -51.5
q0 -27 8 -46.5t21.5 -34.5t31 -27t37.5 -24q13 -8 27.5 -16t26.5 -17.5t20 -22.5t8 -31q0 -29 -10 -47.5t-33 -18.5q-25 0 -35 20t-10 48v34h-80v-42q0 -60 31 -96.5t94 -36.5q31 0 54.5 11t38.5 30t22.5 44.5t7.5 54.5q0 31 -8 50.5t-21 35.5q19 14 34.5 34.5t15.5 56.5z
M222 306q0 -28 -19 -47l-8.5 5t-20 11.5t-23.5 14t-19 12.5q-14 10 -23 21t-9 27q0 28 19 47l8.5 -5t20 -11.5t23.5 -14t19 -12.5q14 -10 23 -21t9 -27z" />
    <glyph glyph-name="dieresis" unicode="&#xa8;" horiz-adv-x="417" 
d="M315 608v90h-81v-90h81zM184 608v90h-81v-90h81z" />
    <glyph glyph-name="copyright" unicode="&#xa9;" horiz-adv-x="514" 
d="M480 216v220q0 38 -12 77.5t-38.5 72t-68.5 53.5t-102 21t-102 -21t-68.5 -53.5t-38.5 -72t-12 -77.5v-220q0 -38 12 -77.5t38.5 -72t68.5 -53.5t102 -21t102 21t68.5 53.5t38.5 72t12 77.5zM413 216q0 -30 -9 -58.5t-27.5 -50t-48 -35t-69.5 -13.5q-41 0 -70 13.5
t-47.5 35t-27.5 50t-9 58.5v220q0 30 9 58t27.5 50t47.5 35t70 13q40 0 69.5 -13t48 -35t27.5 -50t9 -58v-220zM352 216v50h-72v-50q0 -18 -6 -23.5t-15 -5.5t-15.5 6t-6.5 23v220q0 17 6.5 23t15.5 6t15 -5.5t6 -23.5v-50h72v50q0 42 -24 68t-69 26t-69.5 -26t-24.5 -68
v-220q0 -42 24.5 -68t69.5 -26t69 26t24 68z" />
    <glyph glyph-name="ordfeminine" unicode="&#xaa;" horiz-adv-x="232" 
d="M205 325v327h-67v-18q-5 8 -17 15t-25 7q-40 0 -56 -26t-16 -62v-159q0 -37 15 -62.5t56 -25.5q14 0 27.5 8.5t18.5 19.5v-24h64zM138 407q0 -14 -7 -21t-18 -7t-16.5 5.5t-5.5 22.5v162q0 16 6.5 22.5t17.5 6.5q10 0 16.5 -7t6.5 -22v-162z" />
    <glyph glyph-name="guillemotleft" unicode="&#xab;" horiz-adv-x="366" 
d="M344 130v88l-100 82l100 80v89l-158 -136v-67zM172 130v88l-100 82l100 80v89l-158 -136v-67z" />
    <glyph glyph-name="logicalnot" unicode="&#xac;" 
d="M150 279v104h-100v-104h100z" />
    <glyph glyph-name="registered" unicode="&#xae;" horiz-adv-x="287" 
d="M263 429v121q0 27 -9.5 47t-26 33.5t-38 20t-46.5 6.5q-50 0 -84.5 -27t-34.5 -80v-121q0 -53 34.5 -80t84.5 -27q25 0 46.5 6.5t38 20t26 33.5t9.5 47zM227 429q0 -34 -24 -54t-60 -20t-60 20t-24 54v121q0 34 24 53.5t60 19.5t60 -19.5t24 -53.5v-121zM191 391v68
q0 10 -4 19t-12 13q7 5 11.5 12.5t4.5 15.5v23q0 19 -11.5 33t-35.5 14h-47v-198h38v81h9q5 0 7.5 -2t2.5 -10v-69h37zM153 518q0 -12 -11 -12h-7v50h7q11 0 11 -14v-24z" />
    <glyph glyph-name="macron" unicode="&#xaf;" horiz-adv-x="391" 
d="M349 618v60h-307v-60h307z" />
    <glyph glyph-name="macron" unicode="&#x2c9;" horiz-adv-x="391" 
d="M349 618v60h-307v-60h307z" />
    <glyph glyph-name="degree" unicode="&#xb0;" horiz-adv-x="213" 
d="M185 483v94q0 35 -18.5 59t-60.5 24t-60 -24t-18 -59v-94q0 -35 18 -59.5t60 -24.5t60.5 24.5t18.5 59.5zM131 481q0 -33 -25 -33t-25 33v97q0 34 25 34t25 -34v-97z" />
    <glyph glyph-name="ffl" unicode="&#xb1;" horiz-adv-x="777" 
d="M608 467v88q0 66 -34 105.5t-98 39.5t-98 -39.5t-34 -105.5v-555h85v308h174v76h-174v171q0 68 47 68t47 -68v-88h85zM300 467v88q0 66 -34 105.5t-98 39.5t-98 -39.5t-34 -105.5v-555h85v308h174v76h-174v171q0 68 47 68t47 -68v-88h85zM741 0v692h-85v-692h85z" />
    <glyph glyph-name="twosuperior" unicode="&#xb2;" horiz-adv-x="270" 
d="M231 215v60h-123v32q0 23 12.5 39.5t39.5 39.5q26 22 46.5 49t20.5 66v59q0 46 -24.5 71.5t-69.5 25.5t-68.5 -25.5t-23.5 -71.5v-52h66v50q0 22 6.5 30.5t19.5 8.5q12 0 19.5 -8.5t7.5 -30.5v-54q0 -28 -18.5 -47t-40.5 -39t-40.5 -45t-18.5 -64v-94h189z" />
    <glyph glyph-name="threesuperior" unicode="&#xb3;" horiz-adv-x="276" 
d="M235 306v66q0 23 -9 42t-26 29q17 10 25 29.5t8 42.5v45q0 46 -25.5 71.5t-70.5 25.5t-70.5 -25.5t-25.5 -71.5v-52h66v49q0 22 8 31t22 9t22 -9t8 -31v-50q0 -39 -31 -39h-36v-56h37q31 0 31 -40v-63q0 -22 -8.5 -31t-22.5 -9t-22 9t-8 31v50h-66v-53q0 -46 25.5 -71.5
t70.5 -25.5t71.5 25.5t26.5 71.5z" />
    <glyph glyph-name="acute" unicode="&#xb4;" horiz-adv-x="417" 
d="M349 735h-102l-87 -132h70z" />
    <glyph glyph-name="mu" unicode="&#xb5;" 
d="M150 279v104h-100v-104h100z" />
    <glyph glyph-name="mu" unicode="&#x3bc;" 
d="M150 279v104h-100v-104h100z" />
    <glyph glyph-name="paragraph" unicode="&#xb6;" horiz-adv-x="464" 
d="M410 0v652h-199q-49 0 -82 -20t-53.5 -51t-29 -68t-8.5 -71q0 -31 7.5 -67t25.5 -66.5t48 -52t74 -23.5v-233h74v571h68v-571h75z" />
    <glyph glyph-name="periodcentered" unicode="&#xb7;" 
d="M150 279v104h-100v-104h100z" />
    <glyph glyph-name="periodcentered" unicode="&#x22c5;" 
d="M150 279v104h-100v-104h100z" />
    <glyph glyph-name="cedilla" unicode="&#xb8;" horiz-adv-x="333" 
d="M191 -58v58h-39v-56q0 -26 -25 -26h-16v-37h19q61 0 61 61z" />
    <glyph glyph-name="onesuperior" unicode="&#xb9;" horiz-adv-x="197" 
d="M152 215v437h-57q-2 -26 -19 -36t-42 -12v-51h51v-338h67z" />
    <glyph glyph-name="ordmasculine" unicode="&#xba;" horiz-adv-x="232" 
d="M207 412v153q0 43 -24 67t-67 24t-67 -24t-24 -67v-153q0 -43 24 -67t67 -24t67 24t24 67zM145 415q0 -20 -8 -29t-21 -9t-21 9t-8 29v147q0 20 8 29t21 9t21 -9t8 -29v-147z" />
    <glyph glyph-name="guillemotright" unicode="&#xbb;" horiz-adv-x="367" 
d="M352 266v67l-159 136v-89l100 -80l-100 -82v-88zM181 266v67l-159 136v-89l100 -80l-100 -82v-88z" />
    <glyph glyph-name="onequarter" unicode="&#xbc;" horiz-adv-x="580" 
d="M152 215v437h-57q-2 -26 -19 -36t-42 -12v-51h51v-338h67zM405 652h-61l-216 -652h61zM548 79v58h-34v300h-82l-110 -308v-50h125v-79h67v79h34zM448 325q-1 -7 -1 -14v-14v-160h-58z" />
    <glyph glyph-name="onehalf" unicode="&#xbd;" horiz-adv-x="598" 
d="M152 215v437h-57q-2 -26 -19 -36t-42 -12v-51h51v-338h67zM405 652h-61l-216 -652h61zM559 0v60h-123v32q0 23 12.5 39.5t39.5 39.5q26 22 46.5 49t20.5 66v59q0 46 -24.5 71.5t-69.5 25.5t-68.5 -25.5t-23.5 -71.5v-52h66v50q0 22 6.5 30.5t19.5 8.5q12 0 19.5 -8.5
t7.5 -30.5v-54q0 -28 -18.5 -47t-40.5 -39t-40.5 -45t-18.5 -64v-94h189z" />
    <glyph glyph-name="threequarters" unicode="&#xbe;" horiz-adv-x="646" 
d="M235 306v66q0 23 -9 42t-26 29q17 10 25 29.5t8 42.5v45q0 46 -25.5 71.5t-70.5 25.5t-70.5 -25.5t-25.5 -71.5v-52h66v49q0 22 8 31t22 9t22 -9t8 -31v-50q0 -39 -31 -39h-36v-56h37q31 0 31 -40v-63q0 -22 -8.5 -31t-22.5 -9t-22 9t-8 31v50h-66v-53q0 -46 25.5 -71.5
t70.5 -25.5t71.5 25.5t26.5 71.5zM471 652h-61l-216 -652h61zM614 79v58h-35v300h-81l-110 -308v-50h125v-79h66v79h35zM514 325q-1 -7 -1 -14v-14v-160h-59z" />
    <glyph glyph-name="questiondown" unicode="&#xbf;" horiz-adv-x="323" 
d="M227 590v99h-96v-99h96zM299 133v73h-85v-69q0 -35 -13.5 -51t-36.5 -16q-26 0 -38.5 20.5t-12.5 54.5q0 47 8.5 79.5t38.5 64.5q35 38 47.5 83t12.5 108v42h-81v-34q0 -40 -7.5 -77.5t-40.5 -71.5q-36 -37 -49.5 -84t-13.5 -110q0 -66 32 -109.5t104 -43.5
q66 0 100.5 37t34.5 104z" />
    <glyph glyph-name="Agrave" unicode="&#xc0;" horiz-adv-x="312" 
d="M185 705l-87 132h-102l123 -132h66zM312 0l-99 652h-113l-100 -652h87l21 167h96l21 -167h87zM193 238h-74l24 196q2 17 4.5 39t4 41.5t2.5 33l1 13.5h2l1 -13l2.5 -32.5t4 -41.5t4.5 -40z" />
    <glyph glyph-name="Aacute" unicode="&#xc1;" horiz-adv-x="312" 
d="M297 838h-102l-87 -132h70zM312 0l-99 652h-113l-100 -652h87l21 167h96l21 -167h87zM193 238h-74l24 196q2 17 4.5 39t4 41.5t2.5 33l1 13.5h2l1 -13l2.5 -32.5t4 -41.5t4.5 -40z" />
    <glyph glyph-name="Acircumflex" unicode="&#xc2;" horiz-adv-x="312" 
d="M252 706l-72 127h-58l-71 -127h64l36 75l36 -75h65zM312 0l-99 652h-113l-100 -652h87l21 167h96l21 -167h87zM193 238h-74l24 196q2 17 4.5 39t4 41.5t2.5 33l1 13.5h2l1 -13l2.5 -32.5t4 -41.5t4.5 -40z" />
    <glyph glyph-name="Atilde" unicode="&#xc3;" horiz-adv-x="312" 
d="M270 813h-46q0 -18 -8.5 -30.5t-20.5 -12.5q-9 0 -17 6t-17 13.5t-19.5 13.5t-23.5 6q-38 0 -60 -29t-20 -74h46q0 17 8.5 29.5t20.5 12.5q9 0 17 -6t17 -13t19.5 -13t23.5 -6q39 0 60.5 29.5t19.5 73.5zM312 0l-99 652h-113l-100 -652h87l21 167h96l21 -167h87zM193 238
h-74l24 196q2 17 4.5 39t4 41.5t2.5 33l1 13.5h2l1 -13l2.5 -32.5t4 -41.5t4.5 -40z" />
    <glyph glyph-name="Adieresis" unicode="&#xc4;" horiz-adv-x="312" 
d="M258 713v90h-81v-90h81zM127 713v90h-81v-90h81zM312 0l-99 652h-113l-100 -652h87l21 167h96l21 -167h87zM193 238h-74l24 196q2 17 4.5 39t4 41.5t2.5 33l1 13.5h2l1 -13l2.5 -32.5t4 -41.5t4.5 -40z" />
    <glyph glyph-name="Aring" unicode="&#xc5;" horiz-adv-x="312" 
d="M242 786q0 37 -25.5 62.5t-62.5 25.5t-62 -25.5t-25 -62.5q0 -36 25 -61.5t62 -25.5t62.5 25.5t25.5 61.5zM312 0l-99 652h-113l-100 -652h87l21 167h96l21 -167h87zM198 786q0 -18 -13.5 -31.5t-31.5 -13.5t-31.5 13.5t-13.5 31.5q0 19 13.5 32.5t31.5 13.5t31.5 -13.5
t13.5 -32.5zM193 238h-74l24 196q2 17 4.5 39t4 41.5t2.5 33l1 13.5h2l1 -13l2.5 -32.5t4 -41.5t4.5 -40z" />
    <glyph glyph-name="AE" unicode="&#xc6;" horiz-adv-x="463" 
d="M447 0v79h-128v217h113v80h-112v197h127v79h-257l-196 -652h87l44 162h108v-162h214zM233 238h-88l88 325v-325z" />
    <glyph glyph-name="Ccedilla" unicode="&#xc7;" horiz-adv-x="331" 
d="M306 132v74h-86v-69q0 -67 -49 -67q-50 0 -50 67v378q0 67 50 67q49 0 49 -67v-69h86v74q0 67 -35 103.5t-100 36.5t-100.5 -36.5t-35.5 -103.5v-388q0 -62 30.5 -98t86.5 -41v-49q0 -26 -25 -26h-16v-37h19q61 0 61 61v51q56 5 85.5 41t29.5 98z" />
    <glyph glyph-name="Egrave" unicode="&#xc8;" horiz-adv-x="275" 
d="M217 706l-87 132h-102l123 -132h66zM259 0v79h-128v217h113v80h-112v197h127v79h-214v-652h214z" />
    <glyph glyph-name="Eacute" unicode="&#xc9;" horiz-adv-x="275" 
d="M300 838h-102l-87 -132h70zM259 0v79h-128v217h113v80h-112v197h127v79h-214v-652h214z" />
    <glyph glyph-name="Ecircumflex" unicode="&#xca;" horiz-adv-x="275" 
d="M255 706l-72 127h-58l-71 -127h64l36 75l36 -75h65zM259 0v79h-128v217h113v80h-112v197h127v79h-214v-652h214z" />
    <glyph glyph-name="Edieresis" unicode="&#xcb;" horiz-adv-x="275" 
d="M255 711v90h-81v-90h81zM124 711v90h-81v-90h81zM259 0v79h-128v217h113v80h-112v197h127v79h-214v-652h214z" />
    <glyph glyph-name="Igrave" unicode="&#xcc;" horiz-adv-x="177" 
d="M127 706l-87 132h-102l123 -132h66zM132 0v652h-87v-652h87z" />
    <glyph glyph-name="Iacute" unicode="&#xcd;" horiz-adv-x="177" 
d="M240 838h-102l-87 -132h70zM132 0v652h-87v-652h87z" />
    <glyph glyph-name="Icircumflex" unicode="&#xce;" horiz-adv-x="177" 
d="M190 706l-72 127h-58l-71 -127h64l36 75l36 -75h65zM132 0v652h-87v-652h87z" />
    <glyph glyph-name="Idieresis" unicode="&#xcf;" horiz-adv-x="177" 
d="M194 712v90h-81v-90h81zM63 712v90h-81v-90h81zM132 0v652h-87v-652h87z" />
    <glyph glyph-name="Eth" unicode="&#xd0;" horiz-adv-x="365" 
d="M330 142v369q0 64 -32.5 102.5t-106.5 38.5h-141v-259h-33v-77h33v-316h141q74 0 106.5 38.5t32.5 103.5zM244 144q0 -31 -13 -49t-40 -18h-55v239h55v77h-55v180h55q27 0 40 -18t13 -49v-362z" />
    <glyph glyph-name="Ntilde" unicode="&#xd1;" horiz-adv-x="389" 
d="M315 813h-46q0 -18 -8.5 -30.5t-20.5 -12.5q-9 0 -17 6t-17 13.5t-19.5 13.5t-23.5 6q-38 0 -60 -29t-20 -74h46q0 17 8.5 29.5t20.5 12.5q9 0 17 -6t17 -13t19.5 -13t23.5 -6q39 0 60.5 29.5t19.5 73.5zM344 0v652h-79v-350q0 -23 1.5 -47.5t3.5 -45t3.5 -34l1.5 -13.5
h-2l-132 490h-96v-652h79v350q0 24 -1.5 48.5t-4 45t-4 33.5l-1.5 13h2l132 -490h97z" />
    <glyph glyph-name="Ograve" unicode="&#xd2;" horiz-adv-x="351" 
d="M214 706l-87 132h-102l123 -132h66zM315 132v388q0 67 -37.5 103.5t-102.5 36.5t-102.5 -36.5t-37.5 -103.5v-388q0 -67 37.5 -103.5t102.5 -36.5t102.5 36.5t37.5 103.5zM229 137q0 -35 -15 -51t-39 -16t-39 16t-15 51v378q0 35 15 51t39 16t39 -16t15 -51v-378z" />
    <glyph glyph-name="Oacute" unicode="&#xd3;" horiz-adv-x="351" 
d="M326 838h-102l-87 -132h70zM315 132v388q0 67 -37.5 103.5t-102.5 36.5t-102.5 -36.5t-37.5 -103.5v-388q0 -67 37.5 -103.5t102.5 -36.5t102.5 36.5t37.5 103.5zM229 137q0 -35 -15 -51t-39 -16t-39 16t-15 51v378q0 35 15 51t39 16t39 -16t15 -51v-378z" />
    <glyph glyph-name="Ocircumflex" unicode="&#xd4;" horiz-adv-x="351" 
d="M274 706l-72 127h-58l-71 -127h64l36 75l36 -75h65zM315 132v388q0 67 -37.5 103.5t-102.5 36.5t-102.5 -36.5t-37.5 -103.5v-388q0 -67 37.5 -103.5t102.5 -36.5t102.5 36.5t37.5 103.5zM229 137q0 -35 -15 -51t-39 -16t-39 16t-15 51v378q0 35 15 51t39 16t39 -16
t15 -51v-378z" />
    <glyph glyph-name="Otilde" unicode="&#xd5;" horiz-adv-x="351" 
d="M292 813h-46q0 -18 -8.5 -30.5t-20.5 -12.5q-9 0 -17 6t-17 13.5t-19.5 13.5t-23.5 6q-38 0 -60 -29t-20 -74h46q0 17 8.5 29.5t20.5 12.5q9 0 17 -6t17 -13t19.5 -13t23.5 -6q39 0 60.5 29.5t19.5 73.5zM315 132v388q0 67 -37.5 103.5t-102.5 36.5t-102.5 -36.5
t-37.5 -103.5v-388q0 -67 37.5 -103.5t102.5 -36.5t102.5 36.5t37.5 103.5zM229 137q0 -35 -15 -51t-39 -16t-39 16t-15 51v378q0 35 15 51t39 16t39 -16t15 -51v-378z" />
    <glyph glyph-name="Odieresis" unicode="&#xd6;" horiz-adv-x="351" 
d="M281 712v90h-81v-90h81zM150 712v90h-81v-90h81zM315 132v388q0 67 -37.5 103.5t-102.5 36.5t-102.5 -36.5t-37.5 -103.5v-388q0 -67 37.5 -103.5t102.5 -36.5t102.5 36.5t37.5 103.5zM229 137q0 -35 -15 -51t-39 -16t-39 16t-15 51v378q0 35 15 51t39 16t39 -16t15 -51
v-378z" />
    <glyph glyph-name="multiply" unicode="&#xd7;" horiz-adv-x="511" 
d="M496 70l-182 183l182 182l-57 58l-183 -183l-183 183l-58 -58l183 -182l-183 -183l58 -58l183 183l183 -183z" />
    <glyph glyph-name="Oslash" unicode="&#xd8;" horiz-adv-x="351" 
d="M316 142v368q0 66 -33.5 108t-107.5 42t-107 -42t-33 -108v-368q0 -66 33 -108t107 -42t107.5 42t33.5 108zM230 474l-110 -215v248q0 35 14 54.5t41 19.5t41 -19.5t14 -54.5v-33zM230 145q0 -35 -14 -54.5t-41 -19.5t-41 19.5t-14 54.5v36l110 211v-247z" />
    <glyph glyph-name="Ugrave" unicode="&#xd9;" horiz-adv-x="355" 
d="M225 706l-87 132h-102l123 -132h66zM315 132v520h-86v-515q0 -35 -14 -51t-38 -16t-38 16t-14 51v515h-86v-520q0 -67 36.5 -103.5t101.5 -36.5t101.5 36.5t36.5 103.5z" />
    <glyph glyph-name="Uacute" unicode="&#xda;" horiz-adv-x="355" 
d="M330 838h-102l-87 -132h70zM315 132v520h-86v-515q0 -35 -14 -51t-38 -16t-38 16t-14 51v515h-86v-520q0 -67 36.5 -103.5t101.5 -36.5t101.5 36.5t36.5 103.5z" />
    <glyph glyph-name="Ucircumflex" unicode="&#xdb;" horiz-adv-x="355" 
d="M280 706l-72 127h-58l-71 -127h64l36 75l36 -75h65zM315 132v520h-86v-515q0 -35 -14 -51t-38 -16t-38 16t-14 51v515h-86v-520q0 -67 36.5 -103.5t101.5 -36.5t101.5 36.5t36.5 103.5z" />
    <glyph glyph-name="Udieresis" unicode="&#xdc;" horiz-adv-x="355" 
d="M282 712v90h-81v-90h81zM151 712v90h-81v-90h81zM315 132v520h-86v-515q0 -35 -14 -51t-38 -16t-38 16t-14 51v515h-86v-520q0 -67 36.5 -103.5t101.5 -36.5t101.5 36.5t36.5 103.5z" />
    <glyph glyph-name="Yacute" unicode="&#xdd;" horiz-adv-x="308" 
d="M315 837h-102l-87 -132h70zM314 652h-90l-49 -214q-5 -22 -8.5 -44.5t-5.5 -35t-2 -14.5h-2q0 2 -1.5 14.5t-5 35t-8.5 44.5l-50 214h-90l112 -403v-249h86v249z" />
    <glyph glyph-name="Thorn" unicode="&#xde;" horiz-adv-x="346" 
d="M321 309v112q0 64 -32.5 103t-106.5 39h-51v89h-86v-652h86v167h51q74 0 106.5 38.5t32.5 103.5zM235 313q0 -31 -13 -49t-40 -18h-51v238h51q27 0 40 -18t13 -49v-104z" />
    <glyph glyph-name="germandbls" unicode="&#xdf;" horiz-adv-x="339" 
d="M310 139v119q0 38 -15.5 67.5t-42.5 40.5q27 11 41.5 41t14.5 68v85q0 65 -34.5 102.5t-100.5 37.5q-67 0 -102 -38t-35 -102v-560h85v555q0 35 14.5 51.5t37.5 16.5t36.5 -17t13.5 -51v-91q0 -31 -13 -49t-40 -18h-19v-72h21q27 0 40 -18t13 -49v-114q0 -35 -14.5 -51
t-38.5 -16h-21v-77h21q65 0 101.5 36t36.5 103z" />
    <glyph glyph-name="agrave" unicode="&#xe0;" horiz-adv-x="342" 
d="M221 567l-87 132h-102l123 -132h66zM306 0v515h-82v-34q-8 20 -30 31t-45 11q-61 0 -90 -36t-29 -104v-251q0 -68 29 -104t90 -36q23 0 45 11t30 31v-34h82zM221 137q0 -35 -14.5 -51.5t-38.5 -16.5t-38.5 16.5t-14.5 51.5v241q0 35 14.5 51.5t38.5 16.5t38.5 -16.5
t14.5 -51.5v-241z" />
    <glyph glyph-name="aacute" unicode="&#xe1;" horiz-adv-x="342" 
d="M314 701h-102l-87 -132h70zM306 0v515h-82v-34q-8 20 -30 31t-45 11q-61 0 -90 -36t-29 -104v-251q0 -68 29 -104t90 -36q23 0 45 11t30 31v-34h82zM221 137q0 -35 -14.5 -51.5t-38.5 -16.5t-38.5 16.5t-14.5 51.5v241q0 35 14.5 51.5t38.5 16.5t38.5 -16.5t14.5 -51.5
v-241z" />
    <glyph glyph-name="acircumflex" unicode="&#xe2;" horiz-adv-x="342" 
d="M266 568l-72 127h-58l-71 -127h64l36 75l36 -75h65zM306 0v515h-82v-34q-8 20 -30 31t-45 11q-61 0 -90 -36t-29 -104v-251q0 -68 29 -104t90 -36q23 0 45 11t30 31v-34h82zM221 137q0 -35 -14.5 -51.5t-38.5 -16.5t-38.5 16.5t-14.5 51.5v241q0 35 14.5 51.5t38.5 16.5
t38.5 -16.5t14.5 -51.5v-241z" />
    <glyph glyph-name="atilde" unicode="&#xe3;" horiz-adv-x="342" 
d="M286 674h-46q0 -18 -8.5 -30.5t-20.5 -12.5q-9 0 -17 6t-17 13.5t-19.5 13.5t-23.5 6q-38 0 -60 -29t-20 -74h46q0 17 8.5 29.5t20.5 12.5q9 0 17 -6t17 -13t19.5 -13t23.5 -6q39 0 60.5 29.5t19.5 73.5zM306 0v515h-82v-34q-8 20 -30 31t-45 11q-61 0 -90 -36t-29 -104
v-251q0 -68 29 -104t90 -36q23 0 45 11t30 31v-34h82zM221 137q0 -35 -14.5 -51.5t-38.5 -16.5t-38.5 16.5t-14.5 51.5v241q0 35 14.5 51.5t38.5 16.5t38.5 -16.5t14.5 -51.5v-241z" />
    <glyph glyph-name="adieresis" unicode="&#xe4;" horiz-adv-x="342" 
d="M273 580v90h-81v-90h81zM142 580v90h-81v-90h81zM306 0v515h-82v-34q-8 20 -30 31t-45 11q-61 0 -90 -36t-29 -104v-251q0 -68 29 -104t90 -36q23 0 45 11t30 31v-34h82zM221 137q0 -35 -14.5 -51.5t-38.5 -16.5t-38.5 16.5t-14.5 51.5v241q0 35 14.5 51.5t38.5 16.5
t38.5 -16.5t14.5 -51.5v-241z" />
    <glyph glyph-name="aring" unicode="&#xe5;" horiz-adv-x="342" 
d="M255 649q0 37 -25.5 62.5t-62.5 25.5t-62 -25.5t-25 -62.5q0 -36 25 -61.5t62 -25.5t62.5 25.5t25.5 61.5zM306 0v515h-82v-34q-8 20 -30 31t-45 11q-61 0 -90 -36t-29 -104v-251q0 -68 29 -104t90 -36q23 0 45 11t30 31v-34h82zM211 649q0 -18 -13.5 -31.5t-31.5 -13.5
t-31.5 13.5t-13.5 31.5q0 19 13.5 32.5t31.5 13.5t31.5 -13.5t13.5 -32.5zM221 137q0 -35 -14.5 -51.5t-38.5 -16.5t-38.5 16.5t-14.5 51.5v241q0 35 14.5 51.5t38.5 16.5t38.5 -16.5t14.5 -51.5v-241z" />
    <glyph glyph-name="ae" unicode="&#xe6;" horiz-adv-x="499" 
d="M473 132v34h-85v-29q0 -35 -14 -51.5t-38 -16.5t-38.5 16.5t-14.5 51.5v97h190v150q0 67 -36.5 103t-101.5 36q-28 0 -51.5 -11t-37.5 -32q-12 18 -34 30.5t-54 12.5q-65 0 -98 -36.5t-33 -103.5v-35h85v30q0 69 44 69q25 0 33.5 -18.5t8.5 -43.5q0 -21 -5 -36t-15 -26.5
t-26 -21t-37 -20.5q-27 -14 -47.5 -29t-33.5 -34t-19.5 -43t-6.5 -55q0 -33 11 -57t28.5 -39.5t38.5 -23.5t42 -8q44 0 68 12.5t41 39.5q17 -29 41 -40.5t58 -11.5q65 0 101 36.5t36 103.5zM387 302h-104v76q0 35 14 51.5t38 16.5t38 -16.5t14 -51.5v-76zM197 146
q0 -40 -15.5 -59t-39.5 -19q-20 0 -33.5 14t-13.5 48q0 36 14.5 56t44.5 38q17 10 26.5 18t16.5 17v-113z" />
    <glyph glyph-name="ccedilla" unicode="&#xe7;" horiz-adv-x="307" 
d="M289 132v34h-85v-29q0 -68 -46 -68t-46 68v241q0 32 11 50t35 18q46 0 46 -68v-30h85v35q0 67 -33.5 103.5t-97.5 36.5t-97.5 -37t-33.5 -104v-250q0 -62 29 -98t83 -41v-49q0 -26 -25 -26h-16v-37h19q61 0 61 61v51q54 5 82.5 41t28.5 98z" />
    <glyph glyph-name="egrave" unicode="&#xe8;" horiz-adv-x="328" 
d="M206 567l-87 132h-102l123 -132h66zM302 132v34h-85v-29q0 -35 -14 -51.5t-38 -16.5t-38.5 16.5t-14.5 51.5v97h190v149q0 67 -36.5 103.5t-101.5 36.5t-101 -36.5t-36 -103.5v-251q0 -67 36.5 -103.5t101.5 -36.5t101 36.5t36 103.5zM216 302h-104v76q0 35 14 51.5
t38 16.5t38 -16.5t14 -51.5v-76z" />
    <glyph glyph-name="eacute" unicode="&#xe9;" horiz-adv-x="328" 
d="M326 700h-102l-87 -132h70zM302 132v34h-85v-29q0 -35 -14 -51.5t-38 -16.5t-38.5 16.5t-14.5 51.5v97h190v149q0 67 -36.5 103.5t-101.5 36.5t-101 -36.5t-36 -103.5v-251q0 -67 36.5 -103.5t101.5 -36.5t101 36.5t36 103.5zM216 302h-104v76q0 35 14 51.5t38 16.5
t38 -16.5t14 -51.5v-76z" />
    <glyph glyph-name="ecircumflex" unicode="&#xea;" horiz-adv-x="328" 
d="M271 568l-72 127h-58l-71 -127h64l36 75l36 -75h65zM302 132v34h-85v-29q0 -35 -14 -51.5t-38 -16.5t-38.5 16.5t-14.5 51.5v97h190v149q0 67 -36.5 103.5t-101.5 36.5t-101 -36.5t-36 -103.5v-251q0 -67 36.5 -103.5t101.5 -36.5t101 36.5t36 103.5zM216 302h-104v76
q0 35 14 51.5t38 16.5t38 -16.5t14 -51.5v-76z" />
    <glyph glyph-name="edieresis" unicode="&#xeb;" horiz-adv-x="328" 
d="M276 580v90h-81v-90h81zM145 580v90h-81v-90h81zM302 132v34h-85v-29q0 -35 -14 -51.5t-38 -16.5t-38.5 16.5t-14.5 51.5v97h190v149q0 67 -36.5 103.5t-101.5 36.5t-101 -36.5t-36 -103.5v-251q0 -67 36.5 -103.5t101.5 -36.5t101 36.5t36 103.5zM216 302h-104v76
q0 35 14 51.5t38 16.5t38 -16.5t14 -51.5v-76z" />
    <glyph glyph-name="igrave" unicode="&#xec;" horiz-adv-x="157" 
d="M127 567l-87 132h-102l123 -132h66zM121 0v515h-85v-515h85z" />
    <glyph glyph-name="iacute" unicode="&#xed;" horiz-adv-x="157" 
d="M238 700h-102l-87 -132h70zM121 0v515h-85v-515h85z" />
    <glyph glyph-name="icircumflex" unicode="&#xee;" horiz-adv-x="157" 
d="M182 568l-72 127h-58l-71 -127h64l36 75l36 -75h65zM121 0v515h-85v-515h85z" />
    <glyph glyph-name="idieresis" unicode="&#xef;" horiz-adv-x="157" 
d="M189 580v90h-81v-90h81zM58 580v90h-81v-90h81zM121 0v515h-85v-515h85z" />
    <glyph glyph-name="eth" unicode="&#xf0;" horiz-adv-x="337" 
d="M211 562q4 -20 6.5 -39.5t3.5 -39.5q-7 17 -28.5 28.5t-43.5 11.5q-61 0 -90 -36t-29 -104v-251q0 -67 36.5 -103.5t101.5 -36.5t101.5 36.5t36.5 103.5v322q0 83 -18 150.5t-57 129.5l-79 -40q11 -15 20 -31t17 -33h-102v-68h124zM221 137q0 -35 -14.5 -51t-38.5 -16
t-38.5 16t-14.5 51v241q0 35 14.5 51.5t38.5 16.5t38.5 -16.5t14.5 -51.5v-241z" />
    <glyph glyph-name="ntilde" unicode="&#xf1;" horiz-adv-x="337" 
d="M291 674h-46q0 -18 -8.5 -30.5t-20.5 -12.5q-9 0 -17 6t-17 13.5t-19.5 13.5t-23.5 6q-38 0 -60 -29t-20 -74h46q0 17 8.5 29.5t20.5 12.5q9 0 17 -6t17 -13t19.5 -13t23.5 -6q39 0 60.5 29.5t19.5 73.5zM304 0v383q0 68 -26.5 104t-87.5 36q-22 0 -43.5 -11.5
t-28.5 -28.5v32h-82v-515h85v378q0 35 13 51.5t36 16.5q49 0 49 -68v-378h85z" />
    <glyph glyph-name="ograve" unicode="&#xf2;" horiz-adv-x="330" 
d="M207 567l-87 132h-102l123 -132h66zM303 132v251q0 67 -36.5 103.5t-101.5 36.5t-101.5 -36.5t-36.5 -103.5v-251q0 -67 36.5 -103.5t101.5 -36.5t101.5 36.5t36.5 103.5zM218 137q0 -35 -14.5 -51.5t-38.5 -16.5t-38.5 16.5t-14.5 51.5v241q0 35 14.5 51.5t38.5 16.5
t38.5 -16.5t14.5 -51.5v-241z" />
    <glyph glyph-name="oacute" unicode="&#xf3;" horiz-adv-x="330" 
d="M328 700h-102l-87 -132h70zM303 132v251q0 67 -36.5 103.5t-101.5 36.5t-101.5 -36.5t-36.5 -103.5v-251q0 -67 36.5 -103.5t101.5 -36.5t101.5 36.5t36.5 103.5zM218 137q0 -35 -14.5 -51.5t-38.5 -16.5t-38.5 16.5t-14.5 51.5v241q0 35 14.5 51.5t38.5 16.5t38.5 -16.5
t14.5 -51.5v-241z" />
    <glyph glyph-name="ocircumflex" unicode="&#xf4;" horiz-adv-x="330" 
d="M268 568l-72 127h-58l-71 -127h64l36 75l36 -75h65zM303 132v251q0 67 -36.5 103.5t-101.5 36.5t-101.5 -36.5t-36.5 -103.5v-251q0 -67 36.5 -103.5t101.5 -36.5t101.5 36.5t36.5 103.5zM218 137q0 -35 -14.5 -51.5t-38.5 -16.5t-38.5 16.5t-14.5 51.5v241
q0 35 14.5 51.5t38.5 16.5t38.5 -16.5t14.5 -51.5v-241z" />
    <glyph glyph-name="otilde" unicode="&#xf5;" horiz-adv-x="330" 
d="M287 674h-46q0 -18 -8.5 -30.5t-20.5 -12.5q-9 0 -17 6t-17 13.5t-19.5 13.5t-23.5 6q-38 0 -60 -29t-20 -74h46q0 17 8.5 29.5t20.5 12.5q9 0 17 -6t17 -13t19.5 -13t23.5 -6q39 0 60.5 29.5t19.5 73.5zM303 132v251q0 67 -36.5 103.5t-101.5 36.5t-101.5 -36.5
t-36.5 -103.5v-251q0 -67 36.5 -103.5t101.5 -36.5t101.5 36.5t36.5 103.5zM218 137q0 -35 -14.5 -51.5t-38.5 -16.5t-38.5 16.5t-14.5 51.5v241q0 35 14.5 51.5t38.5 16.5t38.5 -16.5t14.5 -51.5v-241z" />
    <glyph glyph-name="odieresis" unicode="&#xf6;" horiz-adv-x="330" 
d="M274 580v90h-81v-90h81zM143 580v90h-81v-90h81zM303 132v251q0 67 -36.5 103.5t-101.5 36.5t-101.5 -36.5t-36.5 -103.5v-251q0 -67 36.5 -103.5t101.5 -36.5t101.5 36.5t36.5 103.5zM218 137q0 -35 -14.5 -51.5t-38.5 -16.5t-38.5 16.5t-14.5 51.5v241q0 35 14.5 51.5
t38.5 16.5t38.5 -16.5t14.5 -51.5v-241z" />
    <glyph glyph-name="oslash" unicode="&#xf8;" horiz-adv-x="329" 
d="M303 132v251q0 67 -36.5 103.5t-101.5 36.5t-101.5 -36.5t-36.5 -103.5v-251q0 -67 36.5 -103.5t101.5 -36.5t101.5 36.5t36.5 103.5zM218 367l-106 -156v167q0 35 14.5 51.5t38.5 16.5t38.5 -16.5t14.5 -51.5v-11zM218 137q0 -35 -14.5 -51.5t-38.5 -16.5t-38.5 16.5
t-14.5 51.5v12l106 153v-165z" />
    <glyph glyph-name="ugrave" unicode="&#xf9;" horiz-adv-x="337" 
d="M211 567l-87 132h-102l123 -132h66zM301 0v515h-85v-378q0 -35 -13 -51.5t-36 -16.5q-49 0 -49 68v378h-85v-383q0 -68 26.5 -104t87.5 -36q22 0 43.5 11.5t28.5 28.5v-32h82z" />
    <glyph glyph-name="uacute" unicode="&#xfa;" horiz-adv-x="337" 
d="M328 700h-102l-87 -132h70zM301 0v515h-85v-378q0 -35 -13 -51.5t-36 -16.5q-49 0 -49 68v378h-85v-383q0 -68 26.5 -104t87.5 -36q22 0 43.5 11.5t28.5 28.5v-32h82z" />
    <glyph glyph-name="ucircumflex" unicode="&#xfb;" horiz-adv-x="337" 
d="M270 568l-72 127h-58l-71 -127h64l36 75l36 -75h65zM301 0v515h-85v-378q0 -35 -13 -51.5t-36 -16.5q-49 0 -49 68v378h-85v-383q0 -68 26.5 -104t87.5 -36q22 0 43.5 11.5t28.5 28.5v-32h82z" />
    <glyph glyph-name="udieresis" unicode="&#xfc;" horiz-adv-x="337" 
d="M273 580v90h-81v-90h81zM142 580v90h-81v-90h81zM301 0v515h-85v-378q0 -35 -13 -51.5t-36 -16.5q-49 0 -49 68v378h-85v-383q0 -68 26.5 -104t87.5 -36q22 0 43.5 11.5t28.5 28.5v-32h82z" />
    <glyph glyph-name="yacute" unicode="&#xfd;" horiz-adv-x="337" 
d="M312 699h-102l-87 -132h70zM301 -55v570h-85v-378q0 -35 -13 -51.5t-36 -16.5q-49 0 -49 68v378h-85v-383q0 -68 26.5 -104t87.5 -36q22 0 42 11.5t27 28.5v-82q0 -68 -50 -68t-50 68v9h-85v-14q0 -67 35 -103.5t100 -36.5t100 36.5t35 103.5z" />
    <glyph glyph-name="thorn" unicode="&#xfe;" horiz-adv-x="336" 
d="M312 132v251q0 68 -29 104t-90 36q-22 0 -43.5 -11.5t-28.5 -28.5v209h-85v-882h85v222q7 -17 28.5 -28.5t43.5 -11.5q61 0 90 36t29 104zM227 137q0 -35 -14.5 -51.5t-38.5 -16.5t-38.5 16.5t-14.5 51.5v241q0 35 14.5 51.5t38.5 16.5t38.5 -16.5t14.5 -51.5v-241z" />
    <glyph glyph-name="ydieresis" unicode="&#xff;" horiz-adv-x="337" 
d="M301 -55v570h-85v-378q0 -35 -13 -51.5t-36 -16.5q-49 0 -49 68v378h-85v-383q0 -68 26.5 -104t87.5 -36q22 0 42 11.5t27 28.5v-82q0 -68 -50 -68t-50 68v9h-85v-14q0 -67 35 -103.5t100 -36.5t100 36.5t35 103.5zM278 575v90h-81v-90h81zM147 575v90h-81v-90h81z" />
    <glyph glyph-name="fraction" unicode="&#x2215;" 
d="M150 279v104h-100v-104h100z" />
    <glyph glyph-name="fi" unicode="&#xfb01;" horiz-adv-x="469" 
d="M433 591v101h-85v-101h85zM300 467v88q0 66 -34 105.5t-98 39.5t-98 -39.5t-34 -105.5v-555h85v308h174v76h-174v171q0 68 47 68t47 -68v-88h85zM433 0v515h-85v-515h85z" />
    <glyph glyph-name="fl" unicode="&#xfb02;" horiz-adv-x="469" 
d="M300 467v88q0 66 -34 105.5t-98 39.5t-98 -39.5t-34 -105.5v-555h85v308h174v76h-174v171q0 68 47 68t47 -68v-88h85zM433 0v692h-85v-692h85z" />
    <glyph glyph-name="breve" unicode="&#x2d8;" horiz-adv-x="388" 
d="M346 720h-43q-8 -34 -33 -53t-76 -19q-42 0 -68 19t-37 53h-47q2 -28 13.5 -51.5t31.5 -41t47 -27.5t60 -10t60 10t47 27.5t31.5 41t13.5 51.5z" />
    <glyph glyph-name="dotaccent" unicode="&#x2d9;" horiz-adv-x="175" 
d="M133 594v100h-91v-100h91z" />
    <glyph glyph-name="ring" unicode="&#x2da;" horiz-adv-x="275" 
d="M224 649q0 37 -25.5 62.5t-62.5 25.5t-62 -25.5t-25 -62.5q0 -36 25 -61.5t62 -25.5t62.5 25.5t25.5 61.5zM180 649q0 -18 -13.5 -31.5t-31.5 -13.5t-31.5 13.5t-13.5 31.5q0 19 13.5 32.5t31.5 13.5t31.5 -13.5t13.5 -32.5z" />
    <glyph glyph-name="hungarumlaut" unicode="&#x2dd;" horiz-adv-x="416" 
d="M374 720h-104l-66 -136h67zM212 720h-104l-66 -136h67z" />
    <glyph glyph-name="ogonek" unicode="&#x2db;" horiz-adv-x="333" 
d="M216 -119v37h-16q-25 0 -25 26v56h-39v-58q0 -61 61 -61h19z" />
    <glyph glyph-name="caron" unicode="&#x2c7;" horiz-adv-x="417" 
d="M326 730h-69l-49 -81l-49 81h-68l85 -127h64z" />
    <glyph glyph-name="Lslash" unicode="&#x141;" horiz-adv-x="279" 
d="M264 0v79h-127v233l71 43v67l-71 -44v274h-87v-326l-36 -22v-67l36 22v-259h214z" />
    <glyph glyph-name="dotlessi" unicode="&#x131;" horiz-adv-x="157" 
d="M121 0v515h-85v-515h85z" />
    <glyph glyph-name="lslash" unicode="&#x142;" horiz-adv-x="201" 
d="M193 369v67l-51 -31v287h-85v-338l-49 -29v-67l49 30v-288h85v339z" />
    <glyph glyph-name="ff" unicode="&#x2260;" horiz-adv-x="616" 
d="M608 467v88q0 66 -34 105.5t-98 39.5t-98 -39.5t-34 -105.5v-555h85v308h174v76h-174v171q0 68 47 68t47 -68v-88h85zM300 467v88q0 66 -34 105.5t-98 39.5t-98 -39.5t-34 -105.5v-555h85v308h174v76h-174v171q0 68 47 68t47 -68v-88h85z" />
    <glyph glyph-name="ffi" unicode="&#x221e;" horiz-adv-x="777" 
d="M741 591v101h-85v-101h85zM608 467v88q0 66 -34 105.5t-98 39.5t-98 -39.5t-34 -105.5v-555h85v308h174v76h-174v171q0 68 47 68t47 -68v-88h85zM300 467v88q0 66 -34 105.5t-98 39.5t-98 -39.5t-34 -105.5v-555h85v308h174v76h-174v171q0 68 47 68t47 -68v-88h85zM741 0
v515h-85v-515h85z" />
    <glyph glyph-name="quotedbl" unicode="&#x22;" horiz-adv-x="267" 
d="M231 652h-80l14 -239h52zM116 652h-80l14 -239h52z" />
    <glyph glyph-name="exclam" unicode="!" horiz-adv-x="195" 
d="M140 428v264h-85v-264l15 -251h55zM145 0v99h-95v-99h95z" />
    <glyph glyph-name="lessequal" unicode="&#x2264;" 
d="M150 279v104h-100v-104h100z" />
    <glyph glyph-name="greaterequal" unicode="&#x2265;" 
d="M150 279v104h-100v-104h100z" />
    <glyph glyph-name="partialdiff" unicode="&#x2202;" 
d="M150 279v104h-100v-104h100z" />
    <glyph glyph-name="summation" unicode="&#x2211;" 
d="M150 279v104h-100v-104h100z" />
    <glyph glyph-name="product" unicode="&#x220f;" 
d="M150 279v104h-100v-104h100z" />
    <glyph glyph-name="pi" unicode="&#x3c0;" 
d="M150 279v104h-100v-104h100z" />
    <glyph glyph-name="integral" unicode="&#x222b;" 
d="M150 279v104h-100v-104h100z" />
    <glyph glyph-name="Omega" unicode="&#x3a9;" 
d="M150 279v104h-100v-104h100z" />
    <glyph glyph-name="radical" unicode="&#x221a;" 
d="M150 279v104h-100v-104h100z" />
    <glyph glyph-name="approxequal" unicode="&#x2248;" 
d="M150 279v104h-100v-104h100z" />
    <glyph glyph-name="Delta" unicode="&#x394;" 
d="M150 279v104h-100v-104h100z" />
    <glyph glyph-name="lozenge" unicode="&#x25ca;" 
d="M150 279v104h-100v-104h100z" />
    <glyph glyph-name="apple" unicode="&#xf8ff;" horiz-adv-x="904" 
d="M863 347q0 79 -30 141t-78.5 106t-110 69.5t-124.5 30.5l-12 1v-695l12 1q63 5 124.5 30.5t110 69t78.5 105.5t30 141zM479 0v125h-92q-49 0 -88.5 17.5t-67.5 48t-43 71t-15 85.5t15 85.5t43 71t67.5 48t88.5 17.5h92v125h-92q-79 0 -143 -28t-109 -75.5t-69.5 -110.5
t-24.5 -133t24.5 -133t69.5 -110.5t109 -75.5t143 -28h92zM761 557q-42 -26 -86 -42q-19 49 -45.5 87t-56.5 62q54 -11 102 -38t86 -69zM653 508q-28 -8 -58.5 -13t-62.5 -7v176q35 -20 67 -59.5t54 -96.5zM839 359h-135q-1 36 -6.5 69.5t-14.5 63.5q48 17 93 47
q28 -37 44.5 -81.5t18.5 -98.5zM681 359h-149v106q67 3 128 20q9 -29 14.5 -60t6.5 -66zM681 336q-1 -35 -6.5 -66.5t-14.5 -60.5q-58 18 -128 21v106h149zM839 336q-2 -54 -18.5 -99t-44.5 -81q-22 14 -45 26t-48 20q9 31 14.5 64t6.5 70h135zM653 187q-22 -57 -54 -97
t-67 -59v175q32 -2 62.5 -6.5t58.5 -12.5zM761 138q-38 -42 -86 -69t-102 -38q30 24 56.5 62t45.5 87q44 -16 86 -42z" />
    </font>
</defs>
</svg>
